<svg xmlns="http://www.w3.org/2000/svg" version="1.1" xmlns:xlink="http://www.w3.org/1999/xlink" xmlns:svgjs="http://svgjs.dev/svgjs" width="1000" height="1000" viewBox="0 0 1000 1000"><rect width="1000" height="1000" fill="#ffffff"></rect><g transform="matrix(0.7,0,0,0.7,149.57575757575756,418.1830550278744)"><svg viewBox="0 0 396 93" data-background-color="#ffffff" preserveAspectRatio="xMidYMid meet" height="234" width="1000" xmlns="http://www.w3.org/2000/svg" xmlns:xlink="http://www.w3.org/1999/xlink"><g id="tight-bounds" transform="matrix(1,0,0,1,0.2400000000000091,-0.0471557850568729)"><svg viewBox="0 0 395.52 93.09431157011377" height="93.09431157011377" width="395.52"><g><svg viewBox="0 0 545.9805956828291 128.50851457760317" height="93.09431157011377" width="395.52"><g transform="matrix(1,0,0,1,0,17.76058341846759)"><svg viewBox="0 0 395.52 92.98734774066799" height="92.98734774066799" width="395.52"><g id="textblocktransform"><svg viewBox="0 0 395.52 92.98734774066799" height="92.98734774066799" width="395.52" id="textblock"><g><svg viewBox="0 0 395.52 92.98734774066799" height="92.98734774066799" width="395.52"><g transform="matrix(1,0,0,1,0,0)"><svg width="395.52" viewBox="2.3 -41.4 229.03 53.849999999999994" height="92.98734774066799" data-palette-color="#0718c4"><path d="M2.3 0L2.3-2.45 6.45-2.95 6.45-34.05 2.55-34.7 2.55-37.15 9.1-37.15Q10.5-37.15 12.9-37.35L12.9-37.35Q15.4-37.55 16.8-37.55L16.8-37.55Q24.15-37.55 27.28-35.18 30.4-32.8 30.4-27.7L30.4-27.7Q30.4-24.15 28.43-21.2 26.45-18.25 23-17.2L23-17.2Q24.6-16.35 25.98-14.28 27.35-12.2 29.35-8.5L29.35-8.5Q30.9-5.7 31.73-4.4 32.55-3.1 33.3-2.95L33.3-2.95 35.25-2.45 35.25 0 28.35 0Q27.55 0 26.55-1.73 25.55-3.45 23.9-7.05L23.9-7.05Q22.1-11 20.78-13.33 19.45-15.65 18.15-16.3L18.15-16.3Q12.8-16.3 11.8-16.35L11.8-16.35 11.8-2.95 16.75-2.45 16.75 0 2.3 0ZM17.75-19Q20.95-19 22.8-21.1 24.65-23.2 24.65-27.35L24.65-27.35Q24.65-31 22.78-32.93 20.9-34.85 16.3-34.85L16.3-34.85Q14.7-34.85 13.1-34.65L13.1-34.65Q12.1-34.55 11.8-34.55L11.8-34.55 11.8-19.05Q12.55-19 14.9-19L14.9-19 17.75-19ZM49.75 0.55Q43.7 0.55 40.52-3.4 37.35-7.35 37.35-13.95L37.35-13.95Q37.35-18.3 39-21.6 40.65-24.9 43.62-26.7 46.6-28.5 50.4-28.5L50.4-28.5Q55.05-28.5 57.62-25.93 60.2-23.35 60.35-18.55L60.35-18.55Q60.35-15.5 60-13.9L60-13.9 42.8-13.9Q42.9-8.95 45.1-5.93 47.3-2.9 51.35-2.9L51.35-2.9Q53.35-2.9 55.52-3.63 57.7-4.35 58.9-5.35L58.9-5.35 59.85-3.15Q58.4-1.65 55.55-0.55 52.7 0.55 49.75 0.55L49.75 0.55ZM42.85-16.55L54.85-16.55Q55-17.6 55-18.7L55-18.7Q54.95-21.95 53.62-23.83 52.3-25.7 49.45-25.7L49.45-25.7Q46.55-25.7 44.82-23.6 43.1-21.5 42.85-16.55L42.85-16.55ZM68.4-7.9L69.3-4Q69.8-3.25 71.42-2.65 73.05-2.05 74.85-2.05L74.85-2.05Q77.7-2.05 79.05-3.15 80.4-4.25 80.4-6.2L80.4-6.2Q80.4-7.55 79.55-8.55 78.7-9.55 77.17-10.33 75.65-11.1 72.8-12.2L72.8-12.2Q68.95-13.65 67.17-15.68 65.4-17.7 65.4-21L65.4-21Q65.4-23.2 66.72-24.85 68.05-26.5 70.37-27.43 72.7-28.35 75.55-28.35L75.55-28.35Q77.85-28.35 79.57-28 81.3-27.65 82.35-27.3 83.4-26.95 83.75-26.85L83.75-26.85 83.75-20.65 80.7-20.65 79.7-24.35Q79.4-24.95 78.1-25.38 76.8-25.8 75.2-25.8L75.2-25.8Q72.95-25.8 71.57-24.8 70.2-23.8 70.2-22.1L70.2-22.1Q70.2-20.6 70.92-19.63 71.65-18.65 72.75-18.05 73.85-17.45 75.75-16.65L75.75-16.65 76.75-16.25Q79.55-15.15 81.3-14.15 83.05-13.15 84.22-11.53 85.4-9.9 85.4-7.55L85.4-7.55Q85.4-3.85 82.52-1.65 79.65 0.55 74.65 0.55L74.65 0.55Q72.2 0.55 69.52-0.13 66.85-0.8 65.15-1.5L65.15-1.5 65.15-7.9 68.4-7.9ZM102.19 0.55Q96.14 0.55 92.97-3.4 89.79-7.35 89.79-13.95L89.79-13.95Q89.79-18.3 91.44-21.6 93.09-24.9 96.07-26.7 99.04-28.5 102.84-28.5L102.84-28.5Q107.49-28.5 110.07-25.93 112.64-23.35 112.79-18.55L112.79-18.55Q112.79-15.5 112.44-13.9L112.44-13.9 95.24-13.9Q95.34-8.95 97.54-5.93 99.74-2.9 103.79-2.9L103.79-2.9Q105.79-2.9 107.97-3.63 110.14-4.35 111.34-5.35L111.34-5.35 112.29-3.15Q110.84-1.65 107.99-0.55 105.14 0.55 102.19 0.55L102.19 0.55ZM95.29-16.55L107.29-16.55Q107.44-17.6 107.44-18.7L107.44-18.7Q107.39-21.95 106.07-23.83 104.74-25.7 101.89-25.7L101.89-25.7Q98.99-25.7 97.27-23.6 95.54-21.5 95.29-16.55L95.29-16.55ZM117.19 0L117.19-2.45 120.94-2.75 120.94-23.9 117.34-24.8 117.34-27.5 124.24-28.4 124.34-28.4 125.44-27.5 125.44-26.6 125.29-22.7 125.44-22.7Q125.94-23.55 127.24-24.9 128.54-26.25 130.59-27.38 132.64-28.5 135.04-28.5L135.04-28.5Q136.04-28.5 136.69-28.25L136.69-28.25 136.69-22.65Q136.34-22.9 135.57-23.13 134.79-23.35 133.84-23.35L133.84-23.35Q129.69-23.35 126.14-20.8L126.14-20.8 126.14-2.8 132.49-2.4 132.49 0 117.19 0ZM137.69-25.4L137.69-27.75 149.29-27.75 149.29-25.4 145.74-24.75 150.79-10.35 152.89-4 154.69-10.15 159.74-24.75 156.34-25.4 156.34-27.75 166.49-27.75 166.49-25.4 163.89-24.75 154.24 0.4 149.99 0.4 139.94-24.75 137.69-25.4ZM174.29-32.75Q172.69-32.75 171.89-33.65 171.09-34.55 171.09-35.95L171.09-35.95Q171.09-37.55 172.06-38.6 173.04-39.65 174.74-39.65L174.74-39.65Q176.44-39.65 177.24-38.75 178.04-37.85 178.04-36.45L178.04-36.45Q178.04-34.75 177.06-33.75 176.09-32.75 174.34-32.75L174.34-32.75 174.29-32.75ZM172.29-2.9L172.29-23.9 168.49-24.8 168.49-27.45 176.24-28.4 176.34-28.4 177.49-27.5 177.49-2.85 181.49-2.45 181.49 0 168.24 0 168.24-2.45 172.29-2.9ZM189.03-2.9L189.03-24.45 184.33-24.45 184.33-26.75 189.03-27.7 189.03-30.05Q189.03-33.15 190.66-35.75 192.28-38.35 194.91-39.88 197.53-41.4 200.48-41.4L200.48-41.4Q202.18-41.4 203.43-40.95L203.43-40.95 203.43-35.95Q202.98-36.35 201.66-36.73 200.33-37.1 198.73-37.1L198.73-37.1Q196.38-37.1 195.31-35.88 194.23-34.65 194.23-31.65L194.23-31.65 194.23-27.7 201.13-27.7 201.13-24.45 194.23-24.45 194.23-2.85 199.78-2.45 199.78 0 184.78 0 184.78-2.45 189.03-2.9ZM209.08 12.45Q208.23 12.45 207.41 12.35 206.58 12.25 206.23 12.05L206.23 12.05 206.23 7.7Q206.53 7.9 207.41 8 208.28 8.1 209.08 8.1L209.08 8.1Q211.48 8.1 213.31 6.43 215.13 4.75 216.83 0L216.83 0 214.43 0 204.93-24.75 202.63-25.4 202.63-27.75 214.68-27.75 214.68-25.4 210.83-24.8 215.73-10.05 218.03-2.75 220.18-10.1 224.63-24.8 221.28-25.4 221.28-27.75 231.33-27.75 231.33-25.4 228.83-24.8Q221.48-2.3 220.18 0.75L220.18 0.75Q218.48 5.05 217.08 7.48 215.68 9.9 213.78 11.18 211.88 12.45 209.08 12.45L209.08 12.45Z" opacity="1" transform="matrix(1,0,0,1,0,0)" fill="#000000" class="wordmark-text-0" data-fill-palette-color="primary" id="text-0"></path></svg></g></svg></g></svg></g></svg></g><g transform="matrix(1,0,0,1,417.4720811052259,0)"><svg viewBox="0 0 128.50851457760317 128.50851457760317" height="128.50851457760317" width="128.50851457760317"><g><svg xmlns="http://www.w3.org/2000/svg" xmlns:xlink="http://www.w3.org/1999/xlink" version="1.1" x="0" y="0" viewBox="2 2 96 96" enable-background="new 0 0 100 100" xml:space="preserve" height="128.50851457760317" width="128.50851457760317" class="icon-icon-0" data-fill-palette-color="accent" id="icon-0"><g fill="#0718c4" data-fill-palette-color="accent"><path d="M98 50C98 23.49 76.509 2 50 2 38.961 2 28.799 5.736 20.69 12H36v13.755C40.119 23.371 44.898 22 50 22c15.464 0 28 12.536 28 28 0 3.29-0.587 6.438-1.631 9.368L70 52.999V81h28l-6.646-6.647C95.569 67.213 98 58.893 98 50z" fill="#000000" data-fill-palette-color="accent"></path><path d="M64 74.245C59.881 76.629 55.102 78 50 78c-15.464 0-28-12.536-28-28 0-3.29 0.587-6.438 1.631-9.369L30 47V19H2l6.646 6.646C4.43 32.787 2 41.107 2 50c0 26.509 21.49 48 48 48 11.039 0 21.2-3.736 29.309-10H64V74.245z" fill="#000000" data-fill-palette-color="accent"></path></g></svg></g></svg></g></svg></g><defs></defs></svg><rect width="395.52" height="93.09431157011377" fill="none" stroke="none" visibility="hidden"></rect></g></svg></g></svg>